<svg id="Layer_1" data-name="Layer 1" xmlns="http://www.w3.org/2000/svg" viewBox="0 0 105.82 34.67"><defs><style>.cls-1{fill:#fff;}.cls-2{fill:#aa8094;fill-rule:evenodd;}</style></defs><title>cavendish-logo-white</title><g id="Group"><path id="Combined-Shape" class="cls-1" d="M6.47,7A3.55,3.55,0,0,0,3.88,8a3.17,3.17,0,0,0-1,2.42,3.06,3.06,0,0,0,1,2.34,3.49,3.49,0,0,0,2.5.91,3.68,3.68,0,0,0,3-1.29l2.25,1.52a6.19,6.19,0,0,1-5.22,2.3,6.21,6.21,0,0,1-4.7-1.76,5.8,5.8,0,0,1,0-8.22A6,6,0,0,1,3.14,5.14a6.8,6.8,0,0,1,3.31-.79A6.72,6.72,0,0,1,9.5,5a5.84,5.84,0,0,1,2.21,1.89L9.33,8.21A4.07,4.07,0,0,0,8,7.24,4.1,4.1,0,0,0,6.47,7Zm15.45,5.69a3.41,3.41,0,0,0,.89-2.42,3.32,3.32,0,0,0-.89-2.38A3,3,0,0,0,19.68,7a2.89,2.89,0,0,0-2.2.93,3.28,3.28,0,0,0-.88,2.42,3.37,3.37,0,0,0,.89,2.4,2.9,2.9,0,0,0,2.2.94A3,3,0,0,0,21.92,12.66Zm.76-6.78V4.64h2.86V15.88H22.68V14.69A5.76,5.76,0,0,1,21,15.83a4.74,4.74,0,0,1-1.82.34,5.05,5.05,0,0,1-3.81-1.69,5.81,5.81,0,0,1-1.62-4.18A6,6,0,0,1,15.31,6,5.1,5.1,0,0,1,21,4.73,5.31,5.31,0,0,1,22.68,5.88ZM33,11.3l2.87-6.63h2.89L33.91,15.88H32.06L27.2,4.64h2.91ZM42.8,8.89H49A2.89,2.89,0,0,0,47.86,7.3a3.22,3.22,0,0,0-1.94-.59,3.47,3.47,0,0,0-2.09.66,3.56,3.56,0,0,0-1,1.49Zm3-4.51a5.9,5.9,0,0,1,4.37,1.7,6.13,6.13,0,0,1,1.69,4.49v.54H42.65A3,3,0,0,0,43.71,13a3.39,3.39,0,0,0,2.21.71,3.89,3.89,0,0,0,2.75-1.1l2.4,1.11a5.7,5.7,0,0,1-2.15,1.87,6.91,6.91,0,0,1-3,.6,6,6,0,0,1-4.37-1.67,5.58,5.58,0,0,1-1.66-4.23A5.82,5.82,0,0,1,41.57,6a5.65,5.65,0,0,1,4.21-1.68Zm14.59,0a3.93,3.93,0,0,1,2.87,1.17,4,4,0,0,1,1,2.93v7.43H61.41V11a13.18,13.18,0,0,0-.18-2.66,1.72,1.72,0,0,0-1.76-1.36A2.06,2.06,0,0,0,58,7.51a3,3,0,0,0-.86,1.58A11.6,11.6,0,0,0,57,11.37v4.51H54.14V4.64H57V5.79a6.75,6.75,0,0,1,1.76-1.12,4.35,4.35,0,0,1,1.6-.32Zm14.27,8.31a3.38,3.38,0,0,0,.88-2.42,3.31,3.31,0,0,0-.88-2.38A3,3,0,0,0,72.41,7a2.88,2.88,0,0,0-2.19.93,3.27,3.27,0,0,0-.9,2.39,3.37,3.37,0,0,0,.89,2.4,2.88,2.88,0,0,0,2.19.94,3,3,0,0,0,2.24-1Zm.76-6.78V.3h2.85V15.88H75.4V14.69a5.81,5.81,0,0,1-1.68,1.14,4.74,4.74,0,0,1-1.82.34,5.09,5.09,0,0,1-3.82-1.69,5.84,5.84,0,0,1-1.61-4.18A5.94,5.94,0,0,1,68,6a5,5,0,0,1,3.8-1.66,4.91,4.91,0,0,1,1.92.38A5.31,5.31,0,0,1,75.4,5.88Zm5.43,10V4.64H83.7V15.88Zm9.74-6.82a6.45,6.45,0,0,1,2.27,1.64,3.31,3.31,0,0,1,.61,2,3.26,3.26,0,0,1-1.11,2.5,4.32,4.32,0,0,1-3,1,4.75,4.75,0,0,1-4-1.92l1.76-1.89a3.69,3.69,0,0,0,1.19.88,2.51,2.51,0,0,0,1.2.36,1.43,1.43,0,0,0,.91-.27.78.78,0,0,0,.35-.62c0-.43-.42-.86-1.25-1.27l-1-.47q-2.76-1.38-2.76-3.44a3,3,0,0,1,1-2.28,3.82,3.82,0,0,1,2.66-1,4.66,4.66,0,0,1,3.75,1.86L91.48,8a3,3,0,0,0-2-1.06,1.3,1.3,0,0,0-.75.2.61.61,0,0,0-.28.5.56.56,0,0,0,.18.42,3,3,0,0,0,.85.53Zm14.22-3.58a4.06,4.06,0,0,1,1,2.94v7.43H103V11a13,13,0,0,0-.21-2.65A1.71,1.71,0,0,0,101,6.93a2.09,2.09,0,0,0-1.49.57,3,3,0,0,0-.87,1.55,12.85,12.85,0,0,0-.12,2.32v4.51H95.71V.3h2.84V5.78a6.4,6.4,0,0,1,1.68-1.07A4.38,4.38,0,0,1,102,4.35,3.94,3.94,0,0,1,104.81,5.51ZM82.27,0a1.74,1.74,0,0,1,1.29.54,1.76,1.76,0,0,1,.53,1.3A1.81,1.81,0,0,1,81,3.12a1.81,1.81,0,0,1-.54-1.32A1.79,1.79,0,0,1,82.23,0h0Z"/><path class="cls-2" d="M8.18,31.12a3.29,3.29,0,0,0,.89-2.36,3.24,3.24,0,0,0-.88-2.35A2.91,2.91,0,0,0,6,25.5a3,3,0,0,0-2.22.92,3.18,3.18,0,0,0-.88,2.34,3.25,3.25,0,0,0,.87,2.37A2.89,2.89,0,0,0,6,32,3,3,0,0,0,8.18,31.12Zm.76-7.48A5.9,5.9,0,0,1,9,33.89a6.18,6.18,0,0,1-3,.78A5.75,5.75,0,0,1,1.78,33,5.65,5.65,0,0,1,0,28.77a5.59,5.59,0,0,1,2-4.39,5.74,5.74,0,0,1,3.9-1.53A6.2,6.2,0,0,1,8.94,23.64Zm11.57-.79A4,4,0,0,1,23.38,24a4.06,4.06,0,0,1,1,2.94v7.43H21.55V29.46a13.33,13.33,0,0,0-.18-2.68,1.72,1.72,0,0,0-1.76-1.35,2.14,2.14,0,0,0-1.49.57,3.07,3.07,0,0,0-.86,1.59,11.59,11.59,0,0,0-.13,2.28v4.51H14.28V23.14h2.85V24.3a7.05,7.05,0,0,1,1.76-1.13A4.25,4.25,0,0,1,20.51,22.85Zm6.31,11.53V18.8h2.86V34.38Zm5.14,0V23.14h2.86V34.38Zm1.43-15.87a1.76,1.76,0,0,1,1.29.54,1.84,1.84,0,0,1,.53,1.3,1.81,1.81,0,0,1-1.81,1.81,1.78,1.78,0,0,1-1.29-.54,1.74,1.74,0,0,1-.54-1.32,1.79,1.79,0,0,1,1.78-1.8h0Zm10.25,4.34a3.71,3.71,0,0,1,3.88,3.55,5,5,0,0,1,0,.55v7.43H44.68V29.46a13.33,13.33,0,0,0-.18-2.68,1.72,1.72,0,0,0-1.76-1.35,2.14,2.14,0,0,0-1.49.57,3.07,3.07,0,0,0-.86,1.59,12.45,12.45,0,0,0-.12,2.28v4.51H37.41V23.14h2.86V24.3A6.54,6.54,0,0,1,42,23.16,4.3,4.3,0,0,1,43.64,22.85Zm9,4.5h6.17a2.9,2.9,0,0,0-1.11-1.53,3.35,3.35,0,0,0-1.93-.59,3.49,3.49,0,0,0-2.1.66,3.62,3.62,0,0,0-1.05,1.46ZM61.7,29v.53H52.5a3,3,0,0,0,1.06,1.91,3.34,3.34,0,0,0,2.2.71,3.8,3.8,0,0,0,2.75-1.11l2.41,1.12a5.62,5.62,0,0,1-2.16,1.86,6.75,6.75,0,0,1-3,.61A5.93,5.93,0,0,1,51.4,33a5.57,5.57,0,0,1-1.69-4.18,5.82,5.82,0,0,1,1.68-4.27,5.63,5.63,0,0,1,4.21-1.7A5.9,5.9,0,0,1,60,24.55,6.17,6.17,0,0,1,61.68,29Z"/></g></svg>