<svg xmlns="http://www.w3.org/2000/svg" xmlns:xlink="http://www.w3.org/1999/xlink" aria-hidden="true" focusable="false" style="enable-background:new 0 0 223.6 48;" version="1.1" viewBox="0 0 223.6 48" x="0px" xml:space="preserve" y="0px">
<style type="text/css">
	.st0{opacity:0.9;fill:url(#SVGID001);enable-background:new    ;}

</style>
<g>
	<g>
		<path d="M4.4,32.6c0,0.4,0.2,0.6,0.7,0.6h4.4c0.9,0,1,0.2,1,0.9v2c0,0.7-0.1,0.9-1,0.9H2.8c-2.3,0-3-0.8-3-2.9v-14    c0-0.8,0.1-0.8,1-0.8h2.7c0.8,0,0.9,0.1,0.9,0.8V32.6z"></path>
		<path d="M16.7,29.7c0,1.1,0.1,2.2,0.2,3.1c0.1,0.4,0.2,0.5,0.6,0.5h5.8c0.8,0,0.9,0.1,0.9,0.8v2c0,0.7-0.1,0.8-0.9,0.8h-6.6    c-2.7,0-3.9-0.6-4.1-2.9c-0.2-1.7-0.2-3.5-0.2-5.3V27c0-1.2,0-2.9,0.2-4.4c0.2-2.8,1.3-3.5,4.2-3.5h6.5c0.9,0,0.9,0.1,0.9,0.8v2    c0,0.7,0,0.8-0.9,0.8h-5.8c-0.5,0-0.7,0.2-0.7,0.5c0,0.5-0.1,1.7-0.1,2.7h5.8c0.7,0,0.9,0.1,0.9,0.8v1.9c0,0.6-0.2,0.7-0.9,0.7    h-5.8V29.7z"></path>
		<path d="M34.1,30.1h-0.2l-2.6,6c-0.3,0.7-0.6,0.8-1.4,0.8h-2.7c-0.8,0-0.8-0.5-0.5-1l3.7-7.3c0.1-0.2,0.2-0.5,0.2-0.7    s-0.1-0.3-0.2-0.6L26.6,20c-0.2-0.4,0-0.7,0.7-0.7h2.8c0.8,0,1.1,0.2,1.3,0.6L34,26h0.2l2.7-6.1c0.2-0.4,0.5-0.6,1.3-0.6H41    c0.8,0,0.9,0.3,0.7,0.7L38,27.3c-0.1,0.3-0.2,0.4-0.2,0.6s0.1,0.4,0.2,0.7l3.7,7.3c0.3,0.5,0.3,1-0.5,1h-2.7    c-0.8,0-1.1-0.1-1.4-0.8L34.1,30.1z"></path>
		<path d="M56.7,19.3c0.9,0,1.2,0.1,1.4,0.9c1.6,4.4,3.4,10.1,4.9,15.6c0.1,0.3,0.2,0.6,0.2,0.8s-0.1,0.3-0.5,0.3h-1.3    c-0.6,0-0.8-0.1-0.9-0.6c-0.3-1.2-0.7-2.8-1.1-4.2h-6.3c-0.4,1.4-0.8,3-1.1,4.2c-0.1,0.5-0.3,0.6-0.9,0.6h-1.3    c-0.4,0-0.5-0.1-0.5-0.3s0.1-0.6,0.2-0.8c1.5-5.5,3.3-11.2,4.9-15.6c0.3-0.8,0.5-0.9,1.4-0.9H56.7z M56,21.9    c-0.8,2.5-1.7,5.3-2.5,8h5.1C57.8,27.3,57,24.4,56,21.9L56,21.9z"></path>
		<path d="M77.6,31.1c0,2.1-0.5,3.7-1.6,4.6c-1,1-2.6,1.5-4.9,1.5s-3.8-0.5-4.9-1.5s-1.6-2.6-1.6-4.6V19.9c0-0.4,0.2-0.6,0.6-0.6    h1.5c0.4,0,0.6,0.1,0.6,0.6V31c0,1.3,0.2,2.4,0.8,3c0.6,0.7,1.6,1,2.9,1c1.4,0,2.3-0.3,3-1c0.6-0.6,0.8-1.7,0.8-3V19.9    c0-0.4,0.2-0.6,0.6-0.6H77c0.4,0,0.6,0.1,0.6,0.6V31.1z"></path>
		<path d="M86.8,21.5v14.9c0,0.4-0.1,0.5-0.6,0.5h-1.5c-0.4,0-0.6-0.1-0.6-0.5V21.5h-4.2c-0.5,0-0.5-0.2-0.5-0.5v-1.1    c0-0.4,0.2-0.5,0.5-0.5H91c0.4,0,0.5,0.1,0.5,0.5V21c0,0.4-0.1,0.5-0.5,0.5H86.8z"></path>
		<path d="M105.9,28.8c0,3.6-0.4,5.3-1.7,6.7c-1,1-2.7,1.7-5.1,1.7S95,36.5,94,35.5c-1.3-1.4-1.7-3.1-1.7-6.7v-1.3    c0-3.6,0.4-5.3,1.7-6.8c1-1,2.7-1.7,5.1-1.7s4.1,0.7,5.1,1.7c1.3,1.4,1.7,3.1,1.7,6.8V28.8z M103.1,27.8c0-2.7-0.1-4.4-1-5.4    c-0.7-0.8-1.6-1.1-3.1-1.1s-2.4,0.4-3.1,1.1c-0.9,1-1,2.7-1,5.4v0.6c0,2.7,0.1,4.4,1,5.4c0.7,0.8,1.6,1.1,3.1,1.1s2.4-0.4,3.1-1.1    c0.9-1,1-2.7,1-5.4V27.8z"></path>
		<path d="M110.8,34c0,0.5,0.2,0.7,0.8,0.7h4.8c0.5,0,0.6,0.1,0.6,0.5v1.2c0,0.4-0.1,0.5-0.6,0.5h-5.6c-1.9,0-2.6-0.8-2.6-2.5V19.9    c0-0.4,0.2-0.6,0.6-0.6h1.5c0.4,0,0.6,0.1,0.6,0.6V34H110.8z"></path>
		<path d="M122.3,36.9c-2.3,0-3.3-0.6-3.5-3.1c-0.1-1.5-0.2-3.6-0.2-5.2v-1.1c0-1.4,0-3.8,0.2-5.3c0.2-2.3,1.2-3,3.6-3h6.3    c0.5,0,0.5,0.1,0.5,0.5v1.1c0,0.4-0.1,0.5-0.5,0.5h-6.1c-0.8,0-1.2,0.3-1.2,1c-0.1,1.1-0.1,2.7-0.1,4.3h6.3c0.5,0,0.5,0.1,0.5,0.5    v1.1c0,0.4-0.1,0.5-0.5,0.5h-6.3c0,2,0,3.6,0.2,4.9c0.1,0.7,0.4,1,1.1,1h6.1c0.5,0,0.6,0.1,0.6,0.5v1.1c0,0.4-0.1,0.5-0.6,0.5    h-6.4V36.9z"></path>
		<path d="M139,19.3c0.9,0,1.2,0.1,1.4,0.9c1.6,4.4,3.4,10.1,4.9,15.6c0.1,0.3,0.2,0.6,0.2,0.8s-0.1,0.3-0.5,0.3h-1.3    c-0.6,0-0.8-0.1-0.9-0.6c-0.3-1.2-0.7-2.8-1.1-4.2h-6.3c-0.4,1.4-0.8,3-1.1,4.2c-0.1,0.5-0.3,0.6-0.9,0.6h-1.3    c-0.4,0-0.5-0.1-0.5-0.3s0.1-0.6,0.2-0.8c1.5-5.5,3.3-11.2,4.9-15.6c0.3-0.8,0.5-0.9,1.4-0.9H139z M138.4,21.9    c-0.8,2.5-1.7,5.3-2.5,8h5.1c-0.8-2.6-1.6-5.5-2.5-8H138.4z"></path>
		<path d="M148,36.4c-0.3-0.1-0.4-0.2-0.4-0.5c0-0.1,0-0.2,0.1-0.6l0.2-0.8c0.1-0.2,0.2-0.3,0.4-0.3c0.1,0,0.2,0,0.4,0.1    c1.2,0.4,2.6,0.7,4.2,0.7c2.5,0,3.2-0.8,3.2-2.8v-0.3c0-1.8-0.4-2.3-2.6-2.8l-1.9-0.4c-2.9-0.7-4-1.8-4-4.6v-0.4    c0-3.1,1.8-4.7,5.6-4.7c1.7,0,3.2,0.3,4.1,0.6c0.3,0.1,0.5,0.2,0.5,0.4c0,0.2-0.1,0.4-0.2,0.8l-0.2,0.6c-0.1,0.2-0.2,0.4-0.4,0.4    c-0.1,0-0.2,0-0.4-0.1c-1.2-0.4-2.2-0.6-3.4-0.6c-2.2,0-3.1,0.8-3.1,2.6V24c0,1.7,0.8,2.1,2.6,2.5l1.9,0.4c2.8,0.7,4,1.6,4,4.7V32    c0,3.8-1.8,5.2-5.9,5.2C151.1,37.2,149.2,36.8,148,36.4z"></path>
		<path d="M164.7,37.1c-2.3,0-3.3-0.6-3.5-3.1c-0.1-1.5-0.2-3.6-0.2-5.2v-1.1c0-1.4,0-3.8,0.2-5.3c0.2-2.3,1.2-3,3.6-3h6.3    c0.5,0,0.5,0.1,0.5,0.5V21c0,0.4-0.1,0.5-0.5,0.5H165c-0.8,0-1.2,0.3-1.2,1c-0.1,1.1-0.1,2.7-0.1,4.3h6.3c0.5,0,0.5,0.1,0.5,0.5    v1.1c0,0.4-0.1,0.5-0.5,0.5h-6.3c0,2,0,3.6,0.2,4.9c0.1,0.7,0.4,1,1.1,1h6.1c0.5,0,0.6,0.1,0.6,0.5v1.1c0,0.4-0.1,0.5-0.6,0.5    h-6.4V37.1z"></path>
	</g>
</g>
<g>
	<g>
		<path d="M211.4,17.9c0,0,0.5-0.2,1.6-0.2c1,0,1,0,1.6-0.1s1-0.1,1.3,0s0.8,0.3,1.3,0.9l0.7,0.8c0,0,2.3,2.7,2.9,3.1    c0.4,0.3,0.4,0.5,0.7,0.9c0,0,0,0.1,0.2,0.2s0.4,0.3,0.5,0.5c0.2,0.2,0.7,0.9,0.7,1.5s-0.5,0.6-1,0.5c-0.6,0-1.5-0.2-1.6-0.8    c0,0-0.1-0.3,0.1-0.7c0.1-0.3,0-0.5-0.2-0.6s-0.6,0-0.8-0.5c-0.2-0.6-1.3-2-2.4-2.9c0,0-1.1-0.8-1.6-0.8h-0.1    c-0.3,0-0.6,0-1.1,0.3c0,0-0.3,0.2-0.4,0.2c-0.1,0.1-0.4,0.3-0.5,0.3c-0.1,0.1-0.8,0.4-1.2,0.6c-0.4,0.1-0.6,0.2-0.6,0.2    c-0.1,0-0.1,0-0.1,0l-0.1,0.2c0,0,0.7,0,0.9,0s0.7,0,1.4-0.1c0.7,0,1,0,1.1,0s0.4,0,0.7,0.2s0.5,0.6,0.6,0.8    c0.1,0.2,0.6,1.3,0.6,1.4c0,0,0.1,0.2,0.1,0.3c0,0,0.5,1.7,1.8,3.8c0.4,0.6,0.4,0.6,0.6,1c0.2,0.3,0.2,0.9,0.3,1.5    c0,0.5,0,1.6-0.5,1.6s-0.8-0.2-1-0.4c0,0-1-0.6-1-1.2c0,0,0-0.3,0.2-0.5c0.1-0.2,0.5-0.7,0.5-0.8c0,0,0.1-0.3-0.2-0.3    c0,0-0.3-0.1-0.4-0.4c-0.1-0.4-0.6-1.9-1.1-3.2c-0.1-0.1-0.2-0.3-0.2-0.4c-0.2-0.3-0.4-0.5-0.6-0.8c-0.2-0.3-0.5-0.5-0.8-0.5    s-0.6,0-1.4,0.4c0,0-0.5,0.3-0.9,0.5c-0.3,0.2-0.9,0.6-1.2,0.7s-0.8,0.4-1.1,0.6c-0.3,0.1-0.9,0.4-1.2,0.5l0,0    c-0.2,0.1-0.5,0.2-0.8,0.1c-0.2,0-0.3-0.1-0.5-0.1c-0.2-0.1-0.6-0.1-1.3,0.2c-0.7,0.3-1.2,0.5-1.8,0.6c-0.5,0.1-1.4,0.3-2.1,0.3    c-0.7,0-1.3,0.1-1.7,0c-0.4,0-1.2-0.1-2.1-0.2c-0.9-0.1-1.6-0.2-1.9-0.2c-0.3,0-0.6,0-0.6,0c-0.1,0-0.1,0-0.1,0s-0.3,0.8-0.5,1.1    c-0.2,0.3-0.6,1.1-0.9,1.5c-0.3,0.4-0.7,0.9-1.1,1.3c-0.4,0.3-0.6,0.4-1,0.6s-0.8,0.6-0.8,1.3s0.4,1.4,0.4,1.4s0.2,0.5,0.9,1.3    s0.9,1.4,1.1,1.7c0.2,0.3,0.7,1.2,1.1,1.6c0.4,0.5,0.8,0.7,0.9,0.8c0.2,0.1,0.8,0.5,1.1,0.9c0.2,0.3,0.4,0.7,0.3,1.1    c-0.1,0.3-0.4,0.3-0.5,0.3s-1.6,0-1.6,0s-0.4,0-0.5-0.2c0,0-0.1-0.2-0.2-0.6c0-0.3-0.1-0.6-0.2-0.7c-0.1-0.1-0.2-0.3-0.4-0.4    c-0.2-0.1-0.5-0.2-0.6-0.5S193,39,193,38.7c0-0.2-0.1-0.4-0.3-0.7s-0.6-0.9-0.6-0.9l-0.5-0.7c0,0-0.5-0.7-0.6-0.8    s-0.5-0.6-0.6-0.8c-0.1-0.1-0.3-0.4-0.6-0.7s-0.4-0.5-0.5-0.6s-0.3-0.4-0.3-0.7s0-0.6,0.1-0.9c0.1-0.3,0.2-0.4,0.4-0.5    c0.2-0.2,0.3-0.4,0.4-0.6c0.1-0.2,0.1-0.3,0.1-0.5c0-0.1,0-0.2,0-0.2s-0.1,0.1-0.3,0.2s-0.7,0.4-1.1,0.6c-0.4,0.1-0.7,0.2-1.1,0.3    c-0.4,0.1-0.3,0.1-0.4,0.1c-0.1,0-0.1,0-0.2,0.1c-0.1,0.1-0.4,0.3-0.6,0.5c-0.2,0.2-0.3,0.3-0.5,0.6s-0.2,0.7-0.2,0.8    c0,0.2-0.1,1.3-0.2,1.9c-0.1,0.6-0.1,1.4-0.1,1.9s0,1,0.2,1.6s0.4,0.8,0.8,1.1c0.4,0.3,0.9,0.6,1.1,1c0.2,0.4,0.3,0.7,0.2,0.9    c0,0.2-0.2,0.2-0.3,0.2c-0.2,0-1.9,0-1.9,0s-0.3,0-0.5-0.3c0,0-0.1-0.2-0.1-0.7s-0.2-0.8-0.3-0.9c-0.1-0.1-0.4-0.3-0.6-0.5    c-0.3-0.2-0.4-0.5-0.4-0.8s0.2-0.8,0.2-1.1s0.1-1.4,0.2-1.8c0-0.4,0.1-1.2,0.1-1.8s0-1.2-0.1-1.6c0-0.3-0.1-0.7-0.1-0.8    c0-0.1-0.1-0.5,0-0.7s0.2-0.5,0.7-0.9s0.8-0.6,1-0.8c0.2-0.2,0.8-0.8,1-1.3c0.2-0.4,0.2-0.4,0.3-0.8c0.1-0.3,0-0.9,0-1.1    s-0.2-0.8-0.2-1.2c0-0.4,0-0.9,0.1-1.7c0.1-0.7,0.4-1.3,0.5-1.5s0.4-0.6,0.4-0.7c0,0,0.1-0.2-0.2-0.2c-0.2,0-0.4,0-0.9-0.1    s-0.9,0.1-1,0.2s-0.3,0.2-0.4,0.4c0,0-0.3-0.1-0.4-0.6c0-0.4,0.2-0.6,0.3-0.8c0,0,0.2-0.2-0.3-0.1s-1,0.8-1.1,1.1l-0.1,0.2    c0,0-0.2,0-0.4-0.4c-0.2-0.3-0.3-0.1-0.4,0.1c-0.1,0.2-0.1,0.9,0.4,1.4c0.5,0.6,0.6,0.6,0.8,0.8c0.2,0.2,0.9,0.8,1.1,1    c0.2,0.3,0.6,0.9,0.5,1.7c-0.1,0.9-0.5,1.4-0.8,1.6s-0.6,0.4-1.3,0.7c-0.7,0.2-1.1,0.4-1.2,0.7c0,0.4,0.4,0.5,0.4,0.5    s-0.2,0.5-0.9,0.4s-1.1-0.8-1-1.3s0.2-0.9,1.3-1.6s0.7-1.5,0.4-1.7c-0.2-0.2-0.8-0.6-0.9-0.7c-0.2-0.1-1-0.8-1.4-1.4    c-0.3-0.5-0.7-1-0.9-2.1s0-2.1,0.1-2.4c0.1-0.4,0.3-0.8,0.6-1.2c0.3-0.4,0.8-0.9,1.7-1.3c0.7-0.3,1.5-0.4,2.5-0.1    c1,0.3,1.9,1.5,1.9,1.5s0.9,1.2,1.4,1.6c0.3,0.2,0.5,0.4,0.8,0.5h0.1c0,0,0.5,0.2,0.8,0.1h0.1c0.3-0.2,1.2-0.7,2.3-0.9    c1.4-0.2,2.4,0,3.1,0.1c0.7,0.1,1.2,0.2,1.7,0.3c0.6,0,1.3,0.1,1.8,0c0.6-0.1,1.2-0.3,2.1-0.8c0.8-0.4,1.3-0.8,1.7-1.1    c1.1-0.9,1.8-1.9,2.3-2.9c0.3-0.6,0.5-1.2,0.6-1.5s0.1-0.5,0.1-0.6s0-0.1,0-0.1c0-1.2-1.8,0.2-1.8,0.2s-0.5,0.4-0.6,0.4    c0,0-0.2,0.2-0.2,0.4s-0.2,0.5-0.5,0.6c-0.2,0.1-0.3,0.2-0.7,0s-0.4-0.2-0.6-0.2c-0.2,0-0.7-0.2-0.9-1.2c0,0-0.1-0.7,0.2-1    s0.6-0.7,0.8-1.2c0.3-0.6,0.4-1,0.9-1.5c0.4-0.5,0.3-0.7,0.2-0.8c0-0.1-0.1-0.4,0.3-0.8c0.4-0.4,0.8-0.8,0.9-1.1    c0.1-0.3,0-0.5-0.3-0.8c-0.2-0.3-0.2-0.6-0.2-0.8c0.1-0.1,0.3-0.1,0.4,0c0.1,0.1,0.2,0.1,0.2,0.2c0.1,0.1,0.3,0.4,0.4,0.5V4.5    c0,0,0-0.3-0.1-0.4c0,0,0-0.4,0-0.6c0.1-0.3,0.3-0.1,0.3-0.1s0.1,0.1,0.1,0.3c0.1,0.2,0.3,0.4,0.5,0.5c0,0,0.4,0,0.8,0.6    c0.2,0.2,0.5,0.3,0.5,0.3c0.8,0.1,0.7-0.5,0.7-0.5c0.3,0.1,0.5,0.2,0.6,0.6s0.4,0.4,0.4,0.4c1.3,0.2,1.8,1.6,1.8,1.6    c0.1,0.2,0.1,0.3,0.2,0.3c0.6,0.4,1.1-0.2,1.1-0.2c0.5,1-0.4,1.8-0.4,1.8c0.2,0.5,0.6,0.7,0.6,0.7c0.7,0.4,0.9,1,0.9,1    c0.2,0.6,0.8,0.4,0.8,0.4c-0.2,1.4-1.5,1.3-1.5,1.3c0.2,0.7,1.4,1.5,1.4,1.5c-0.4,0.8-1.2,0.9-1.3,0.9c-0.2,0-0.4,0.1-0.4,0.4    c0,0.2,0.2,0.4,0.2,0.4c0.7,0.8,0.6,1.7,0.6,1.7s-0.5-0.3-0.7,0c-0.2,0.2,0,0.5,0,0.5C211.1,17.7,211.4,17.9,211.4,17.9z"></path>
	</g>
	<g>
		
			<linearGradient gradientTransform="matrix(1 0 0 -1 0 47.89)" gradientUnits="userSpaceOnUse" id="SVGID001" x1="183.2355" x2="182.2442" y1="28.374" y2="31.6395">
			<stop offset="4.907980e-02" style="stop-color:#231F20"></stop>
			<stop offset="0.2432" style="stop-color:#262223"></stop>
			<stop offset="0.3846" style="stop-color:#2F2B2C"></stop>
			<stop offset="0.5094" style="stop-color:#3E3B3C"></stop>
			<stop offset="0.6244" style="stop-color:#545253"></stop>
			<stop offset="0.7329" style="stop-color:#716F70"></stop>
			<stop offset="0.8365" style="stop-color:#939293"></stop>
			<stop offset="0.9342" style="stop-color:#BBBCBD"></stop>
			<stop offset="1" style="stop-color:#DBDCDD"></stop>
		</linearGradient>
		<path class="st0" d="M180.2,18.9c0.3,0,1-1.9,2.2-1.9c0.4,0,0.4,0.1,0.4,0.3c0,0.3-0.4,0.5-0.4,0.8c0,0.1,0,0.1,0.1,0.1    c0.3,0,0.5-0.7,1.8-0.7c0.3,0,0.6,0,0.9,0.1c0.1,0,0.4,0.2,0.3-0.2c-0.3-0.9-1.3-1.7-2.6-1.7s-2.7,1.2-2.9,2.7    C180.1,18.7,180.1,18.9,180.2,18.9"></path>
		
			<linearGradient gradientTransform="matrix(1 0 0 -1 0 47.89)" gradientUnits="userSpaceOnUse" id="SVGID_002" x1="197.1204" x2="195.4199" y1="8.9752" y2="6.9461">
			<stop offset="0.1166" style="stop-color:#231F20"></stop>
			<stop offset="0.2679" style="stop-color:#262223"></stop>
			<stop offset="0.3895" style="stop-color:#302C2D"></stop>
			<stop offset="0.5008" style="stop-color:#413D3E"></stop>
			<stop offset="0.606" style="stop-color:#585556"></stop>
			<stop offset="0.7068" style="stop-color:#767474"></stop>
			<stop offset="0.8044" style="stop-color:#9B9A9A"></stop>
			<stop offset="0.8994" style="stop-color:#C7C6C7"></stop>
			<stop offset="0.9901" style="stop-color:#F9F9F9"></stop>
			<stop offset="1" style="stop-color:#FFFFFF"></stop>
		</linearGradient>
		<path d="M195.9,41c-0.3,0-0.4-0.8-0.5-1.2    c0.3,0.1,0.7,0.4,0.9,0.7c0.1,0.1,0.2,0.5,0,0.5H195.9z" style="fill:url(#SVGID_002);"></path>
		
			<linearGradient gradientTransform="matrix(1 0 0 -1 0 47.89)" gradientUnits="userSpaceOnUse" id="SVGID_003" x1="187.4247" x2="185.8008" y1="8.5983" y2="6.8933">
			<stop offset="0" style="stop-color:#231F20"></stop>
			<stop offset="0.1713" style="stop-color:#262223"></stop>
			<stop offset="0.309" style="stop-color:#302C2D"></stop>
			<stop offset="0.4349" style="stop-color:#413D3E"></stop>
			<stop offset="0.554" style="stop-color:#585556"></stop>
			<stop offset="0.6681" style="stop-color:#767474"></stop>
			<stop offset="0.7786" style="stop-color:#9B9A9A"></stop>
			<stop offset="0.8861" style="stop-color:#C7C6C7"></stop>
			<stop offset="0.9888" style="stop-color:#F9F9F9"></stop>
			<stop offset="1" style="stop-color:#FFFFFF"></stop>
		</linearGradient>
		<path d="M186.3,41c-0.3,0-0.4-0.8-0.5-1.1    c0.3,0.1,0.7,0.3,0.9,0.7c0.1,0.1,0.2,0.5,0,0.5h-0.4V41z" style="fill:url(#SVGID_003);"></path>
		
			<linearGradient gradientTransform="matrix(0.9998 -1.750000e-02 -1.750000e-02 -0.9998 7.3415 -10.3019)" gradientUnits="userSpaceOnUse" id="SVGID_004" x1="205.7499" x2="198.285" y1="-31.8584" y2="-25.2683">
			<stop offset="0" style="stop-color:#231F20"></stop>
			<stop offset="8.061253e-02" style="stop-color:#262223"></stop>
			<stop offset="0.1453" style="stop-color:#2F2C2D"></stop>
			<stop offset="0.2044" style="stop-color:#3D3D3E"></stop>
			<stop offset="0.2125" style="stop-color:#404041"></stop>
			<stop offset="0.446" style="stop-color:#5A5B5D"></stop>
			<stop offset="0.6202" style="stop-color:#808184"></stop>
			<stop offset="0.8711" style="stop-color:#D0D2D3"></stop>
		</linearGradient>
		<path d="M207.1,17.7c3.2,1.4,3,4.1,3.3,3.4    c0.1-0.3,0.5-1.6-0.6-2.9c-0.9-1-1.2-0.7-0.9-1.6c1.3-3.4,2.1-8.4-2.1-10.2c-0.5-0.2-0.9-0.2-0.9-0.1s0.4,0.2,1,0.6    c2.8,1.8,2,6.8-0.5,9.2C205.6,17.1,206.1,17.3,207.1,17.7" style="fill:url(#SVGID_004);"></path>
		
			<linearGradient gradientTransform="matrix(0.9941 0.1083 0.1083 -0.9941 -89.7171 416.9384)" gradientUnits="userSpaceOnUse" id="SVGID_005" x1="247.2317" x2="244.635" y1="434.5075" y2="441.0439">
			<stop offset="0" style="stop-color:#231F20"></stop>
			<stop offset="0.4439" style="stop-color:#828081"></stop>
			<stop offset="1" style="stop-color:#FFFFFF"></stop>
		</linearGradient>
		<path d="M204.1,7.2c-0.3-0.2-0.4-0.4-0.2-0.8    c0.1-0.5,0.2-0.7,0-0.7c-0.2-0.1-0.5,0-0.7,0.3c-0.3,0.3-0.7,0.6-0.8,0.9c-0.1,0.4,0.3,0.4-0.1,1c-0.7,1-0.9,1.2-1.2,1.9    c-0.3,0.8-0.5,0.8-0.7,1.1c-0.2,0.2,0.2,0.3,0.6,0.2c0.5-0.1,0.5,0.4,0.3,0.8c-0.2,0.3-0.1,0.4,0.3,0.1c0.4-0.2-0.1-0.5,0.1-1.4    c0.2-0.8,0.4-1.2,1-2c0.5-0.7,0.9-1.1,1.6-0.8C204.6,7.9,204.5,7.4,204.1,7.2" style="fill:url(#SVGID_005);"></path>
		
			<linearGradient gradientTransform="matrix(1 0 0 -1 0 47.89)" gradientUnits="userSpaceOnUse" id="SVGID_006" x1="223.2554" x2="221.6134" y1="25.5342" y2="22.1179">
			<stop offset="0" style="stop-color:#231F20"></stop>
			<stop offset="0.1713" style="stop-color:#262223"></stop>
			<stop offset="0.309" style="stop-color:#302C2D"></stop>
			<stop offset="0.4349" style="stop-color:#413D3E"></stop>
			<stop offset="0.554" style="stop-color:#585556"></stop>
			<stop offset="0.6681" style="stop-color:#767474"></stop>
			<stop offset="0.7786" style="stop-color:#9B9A9A"></stop>
			<stop offset="0.8861" style="stop-color:#C7C6C7"></stop>
			<stop offset="0.9888" style="stop-color:#F9F9F9"></stop>
			<stop offset="1" style="stop-color:#FFFFFF"></stop>
		</linearGradient>
		<path d="M221.8,25.6c-0.4-0.1,0.1-0.7-0.2-1.4    c0.5,0.2,0.9,1,0.9,1.3C222.5,25.7,222.1,25.6,221.8,25.6" style="fill:url(#SVGID_006);"></path>
		
			<linearGradient gradientTransform="matrix(1 0 0 -1 0 47.89)" gradientUnits="userSpaceOnUse" id="SVGID_007" x1="221.3777" x2="217.5869" y1="19.3077" y2="16.6772">
			<stop offset="0" style="stop-color:#323031"></stop>
			<stop offset="0" style="stop-color:#231F20"></stop>
			<stop offset="0.1713" style="stop-color:#262223"></stop>
			<stop offset="0.309" style="stop-color:#302C2D"></stop>
			<stop offset="0.4349" style="stop-color:#413D3E"></stop>
			<stop offset="0.554" style="stop-color:#585556"></stop>
			<stop offset="0.6681" style="stop-color:#767474"></stop>
			<stop offset="0.7786" style="stop-color:#9B9A9A"></stop>
			<stop offset="0.8861" style="stop-color:#C7C6C7"></stop>
			<stop offset="0.9888" style="stop-color:#F9F9F9"></stop>
			<stop offset="1" style="stop-color:#FFFFFF"></stop>
		</linearGradient>
		<path d="M218.6,31.4c-0.2,0-0.7-0.3-0.7-0.5    c0.1-0.3,0.5-0.6,0.7-1.3c0.3,0.3,0.3,1,0.2,1.5C218.8,31.2,218.7,31.4,218.6,31.4" style="fill:url(#SVGID_007);"></path>
		
			<linearGradient gradientTransform="matrix(1 0 0 -1 0 47.89)" gradientUnits="userSpaceOnUse" id="SVGID_008" x1="196.7781" x2="194.7846" y1="23.1347" y2="29.0442">
			<stop offset="0" style="stop-color:#231F20"></stop>
			<stop offset="0.1277" style="stop-color:#272324"></stop>
			<stop offset="0.2677" style="stop-color:#343132"></stop>
			<stop offset="0.4135" style="stop-color:#4A4748"></stop>
			<stop offset="0.5634" style="stop-color:#686566"></stop>
			<stop offset="0.7164" style="stop-color:#8E8D8E"></stop>
			<stop offset="0.8696" style="stop-color:#BDBCBD"></stop>
			<stop offset="1" style="stop-color:#EAEBEC"></stop>
		</linearGradient>
		<path d="M198.9,22.5c1.7-0.2,2-0.6,2.3-1.9    c0.1-0.6,0.6-1.3,1-1.7c0.3-0.3,0.7-0.8,1-1.2c0.1-0.2,0-0.3-0.1-0.2c-0.2,0.1-1,0.7-1.2,0.9c-1.2,0.9-3.1,1.3-3.8,1.3    c-1.8,0-3-0.4-4.5-0.4c-4.4,0-5.9,3.4-5.7,5.4c0,0.3,0.1,0.3,0.2,0.3c0.3,0,0.6-1.2,1.7-2.2c1.6-1.5,3.3-2.4,5.8-2.4    c1.8,0,2.5,0.6,2.5,0.8c0,0.4-0.8,0.5-0.7,0.9C197.4,22.3,197.8,22.7,198.9,22.5" style="fill:url(#SVGID_008);"></path>
	</g>
</g>
</svg>