<svg xmlns="http://www.w3.org/2000/svg" viewBox="60.8 199.6 720.1 196.1"><path d="m109.6 391.1-4-2.8c-1.7-20-8-32.2-11.3-38.5 3.5-2.3 9.4-7.7 9.4-15.5s-6.3-11.8-6.3-21.4 1.8-9.7 4.7-13.1c-1.9-2.7-4.1-4.2-7.5-4.2s-7 3.1-7 7.7 1.2 5.7 3.8 7c-1.8 2.6-6.6 2.8-9.2-1 0 9.1 9.7 15.5 9.7 25.3s-5 12.4-12.3 12.4-10.5-2.5-13.1-7.5c5.9 1.5 10.1-.8 10.1-6 0-9.5-15.8-18.8-15.8-34.9s9.8-19.7 20.9-19.7 19.2 4.7 26 16.5c3.5-2.6 7.7-4.1 12-5 11.6-2.3 25.8-.2 36.7-4.9 4.9-2.1 8.9-5.7 8.9-9.9s-1.1-3.2-2.8-3.2-2.1.4-2.8 2.2c-2.1-1.8-2.8-3.8-2.8-5.8 0-3.3 1-4.8 2.2-6.4-1.1-2.8-4.5-3.5-6.8-.7-2.8-5.2-1.1-12.4 6.3-14.6-8.6-1.5-10.9-6.8-9.9-12.7.8.7 1.7 1.1 2.7 1.1 1.4 0 2.3-1.1 2.3-2.8s-.9-4.5-5.3-7.5c3.9-5.9 10.7-6.8 14.1-4.6-1.7-2.5-2.6-6.7.2-10.8.7.9 2.2 2.3 4.7 2.3 7.2 0 7.5-7.9 13-8.7-.3 2.5.3 5.9 3.4 5.9s5.8-6 6.8-9.7c1.7 1 3 2.7 2.7 5.8l2.4-4.8c2 1.7 2.4 4.5 1.7 7.1-.2.7-.4 1.1-.4 1.5 0 1.9 5.7 3.3 5.7 7.6s-.2 1.5-.5 2.3l13.1 16.5c.8 1 1.1 2.1 1.1 3.1 0 3.4-3 7.1-7.3 7.1s-5.8-2.3-6-3.4l-11.4-5.6c-.7 1.1-1.4 2.9-1.4 4.9 0 12.5 17.7 12.9 22 29.2l17.5-5.8c12.5 12.2 25.8 24 33.9 28.9l5.2 6.6h-15.7V296l-4.3-1.2c-6.6-10.3-15.5-16-20.3-17.4-5.8 3.5-10.2 7.2-15.3 13 8.3-.7 17.6.2 25.4 1.6l-4.1 35-3.3 9-8.8 7.5V328h4.7l-1.3-4.9c3.9-10.2 4.4-17.1 4.4-20.8s0-2.2-.4-2.6c-.3-.3-1.7 0-2.9.3-3.2.9-8.3 3.3-15 8.7-6 4.9-9.3 7.1-17.4 6.2-9.1 9.5-28.5 14.1-45.5 13.8-1.3 13.8-16.6 21.7-16.6 28.3s2.2 6.2 7.1 13.5c5.4 8.2 10.6 16 17 18.5l5.4 6.6h-15.7v-4.7c-.1 0-4.6-2.5-4.6-2.5-5.1-9.5-13.1-19.9-24.1-29.7 2.7-5.3 4.1-10.8 4.1-16-5 7.5-12.2 7.5-13.5 13.2-.5 2.1-.2 6.3.9 11.6 1.7 8.1 3.2 17.6 10.7 21.4l5.2 6.8h-15.6V391Z"></path><path d="M82.5 283.4c3.3 0 7.9.8 11.1 3.8-7.6-3.5-19-1.2-19.8 8-1.3-1.4-1.7-3.2-1.8-4.7-2.8 1.3-5 5.2-5.5 9.4-2.2-10 5.9-16.5 16-16.5Zm42.2 10.9c10.6-1.3 24.9-.1 36.7-5.9 5.5-2.7 11.1-7.3 11.1-13.5s-9.2-14.8-9.2-30.7 4.6-22.3 16.7-28.8c-7.7 6.6-11.3 14.3-11.3 23.5s3.6 19.1 16 24c8.7 3.4 16.8 3.5 20.3 10.8-3.1-2.5-7-3.3-9.8-3.3-17.7 0-24.4 33.1-45.2 42.5 4.4-11.5-8.9-15.2-21.1-14.9-10 .2-25.3 2.9-25.5 18.8-2.8-10.6 3.3-20.3 21.4-22.5Zm81.9-53.7c0-.9.5-2.5.5-3.9s-.2-1.6-1-2.9c-1.3-1.9-3.6-5.2-5.9-7.7-3.1-3.2-5.7-4.1-9.9-3.9 3.4-1.8 4.1-3.6 4.1-5.6s-.9-3.5-2.5-5.2c2.2.4 8 2.8 8 5.9s-.3 1.3-1 1.9l14 17.5c-.5.8-1.6.4-2.5.4s-1 .4-1 1c0 1.2.9 2.7 1.5 3.5-.4.3-1.3.6-2.1.6s-2.3-.4-2.3-1.8Z" style="fill:#006a4d"></path><path d="M299 338.5V271c0-3.8-.9-8.1-2.2-13.5h21.7c-1.3 5.4-2.2 9.7-2.2 13.4v65.5h23.8c8 0 13-.4 18.3-1.8l-5.4 17.2h-56.2c1.3-5.4 2.2-9.7 2.2-13.4ZM369.1 338.5V271c0-3.8-.9-8.1-2.2-13.4h21.7c-1.3 5.4-2.2 9.7-2.2 13.4v65.5h23.8c8 0 13-.4 18.3-1.8l-5.4 17.2h-56.2c1.3-5.4 2.2-9.7 2.2-13.4ZM430.8 304.8c0-27 19.8-48.4 48.2-48.4s48.2 21.4 48.2 48.4-19.8 48.4-48.2 48.4-48.2-21.4-48.2-48.4Zm78.9 0c0-19.5-11.6-32.9-30.7-32.9s-30.7 13.4-30.7 32.9 11.6 32.9 30.7 32.9 30.7-13.4 30.7-32.9ZM561.8 317.1c-14.5-14.7-27-34.8-33.4-59.5h19.9c.3 4.2 1.1 8.1 2.7 12.7 4.5 13 11.4 23.8 19.3 33 8.1-8.8 15.6-20.1 20.2-33 1.6-4.5 2.4-8.4 2.7-12.7h19.3c-6.3 24.7-18.9 44.7-33.4 59.5V352h-17.3v-34.9ZM626.6 338.5V271c0-3.8-.9-8.1-2.2-13.4h31.8c30.3 0 49.4 19.3 49.4 47.2S686.5 352 656.2 352h-31.8c1.3-5.4 2.2-9.7 2.2-13.4Zm61.6-33.8c0-20.5-11.6-31.7-33-31.7H644v63.6h11.2c21.4 0 33-11.3 33-31.8ZM717.6 346.7l-.3-18.9c12 7.7 20 11.3 29.3 11.3s17.4-4.2 17.4-11.7-2.9-8.9-12.4-12.7l-15.2-6.1c-14-5.6-20.2-13.3-20.2-25.4s12.7-26.7 32.4-26.7 19.9 3.2 25.5 5.9v18.2c-10.6-7-18.4-9.9-26.4-9.9s-14.8 3.9-14.8 9.9 3.1 9 10.6 12l19.1 7.7c11.1 4.5 18.3 12.6 18.3 24.9s-12.6 28.1-35.1 28.1-22-3.7-28.3-6.5Z"></path></svg>