<svg width="668" height="579" viewBox="0 0 668 579" fill="none" xmlns="http://www.w3.org/2000/svg">
<path d="M641.397 304.276C653.984 313.579 667.119 320.147 667.119 334.923C667.119 339.301 661.646 343.679 649.606 343.679C640.303 343.679 630.452 340.942 625.527 334.375C621.696 329.45 627.169 322.336 623.885 317.41C621.149 313.032 615.676 315.221 611.846 313.032C607.467 310.296 606.92 308.654 603.637 302.087C600.353 294.425 588.861 281.838 575.179 268.157C563.687 256.664 551.647 250.645 546.174 251.192C542.344 251.739 541.249 251.739 537.418 251.739C527.568 251.739 519.359 261.043 505.13 267.062C495.279 271.44 489.807 273.63 483.787 274.724L481.598 277.46L494.185 276.913C506.225 276.913 521.548 275.271 533.588 275.271C545.627 275.271 551.647 286.216 556.572 297.709C565.876 320.694 579.557 354.077 596.522 381.987C604.731 395.121 611.298 403.33 611.298 419.748C611.298 424.673 610.751 431.787 604.184 431.787C594.881 431.787 571.348 421.937 571.348 411.539C571.348 403.33 577.916 400.046 577.916 391.837C577.916 386.912 570.254 387.459 568.612 383.081C562.592 358.455 555.478 333.828 541.796 319.052C534.682 311.39 533.587 308.107 526.473 308.107C522.642 308.107 518.811 309.201 515.528 310.296C496.374 317.41 470.653 339.301 438.364 348.604C426.325 352.435 424.136 345.32 411.549 347.509H412.643C402.245 349.699 394.584 355.718 380.355 359.549C361.201 365.022 327.818 367.758 301.002 363.927C281.848 361.191 257.222 357.36 246.824 357.907C238.615 380.892 221.65 411.539 195.929 423.579C182.247 429.598 178.416 437.807 182.247 453.131C187.173 472.285 204.138 485.966 212.894 502.384C221.103 516.065 234.237 538.503 247.918 545.617C261.6 552.732 270.356 563.13 270.356 572.433C270.356 576.811 268.714 579 264.336 579H236.426C232.048 579 229.859 576.264 229.311 574.622C225.481 567.508 228.217 560.941 222.744 554.373C218.914 549.995 216.177 551.09 211.252 547.259C203.043 539.05 209.063 534.672 203.043 524.274C185.531 496.364 177.869 489.797 163.093 469.548C154.884 459.15 144.486 453.678 144.486 439.996C144.486 423.031 161.451 420.295 160.904 403.33C149.959 411.539 137.372 417.559 117.671 420.295C114.934 420.842 108.367 425.768 105.631 429.051C99.0638 435.618 96.3276 442.733 95.233 452.583C93.044 475.568 88.6659 498.553 91.4022 521.538C95.233 536.314 97.9694 541.239 110.009 549.448C117.671 554.373 126.427 561.488 127.521 572.433C127.521 575.169 126.427 579 122.596 579H92.4967C89.7605 579 87.0241 576.811 85.9296 575.169C82.646 569.149 84.8351 565.319 83.1933 558.204C80.457 544.523 64.5865 545.07 64.5865 530.841C64.5865 526.463 67.3228 520.991 67.3228 512.234C68.4173 493.08 73.89 461.339 68.4174 423.579C65.6811 401.688 88.6659 400.594 100.706 381.44C107.82 370.494 105.631 374.872 110.009 367.211C114.387 359.002 113.293 352.982 112.745 348.057C112.745 341.49 106.178 328.355 110.556 300.992C112.198 288.953 118.218 276.366 126.427 265.968C126.427 265.421 126.427 263.779 123.691 263.779C111.651 264.873 111.651 261.59 103.989 261.59C96.3276 261.59 90.3077 268.157 89.2132 271.44C85.3823 269.799 83.7406 265.421 83.7406 263.232C83.7406 258.854 84.8351 255.023 88.6659 251.192C90.3076 249.55 88.6659 248.456 86.4769 248.456C77.1735 248.456 68.4174 259.948 66.2284 267.61C60.7558 266.515 60.2085 259.401 58.0195 259.401C55.2832 259.401 53.6413 263.232 53.6413 267.062C53.6413 293.878 97.422 299.898 97.422 335.47C97.422 376.514 48.1687 367.758 48.1687 382.534C48.1687 385.27 50.3578 388.007 54.1886 389.648C52.5468 393.479 48.1688 395.121 43.7907 395.121C32.8455 395.121 24.6367 386.912 24.6367 375.967C24.6367 353.529 54.7359 352.982 54.7359 336.017C54.7359 327.808 49.8105 325.619 44.8851 321.788C16.4277 301.54 0.0100098 281.291 0.0100098 247.908C0.0100098 211.789 25.1839 184.426 57.4722 184.426C104.536 184.426 106.178 239.152 148.864 243.53C164.735 232.585 183.889 226.018 202.496 226.018C230.406 226.018 242.446 233.132 271.998 233.132C284.037 233.132 303.739 229.849 327.271 213.431C336.027 207.411 339.858 206.317 348.067 199.202C366.674 183.332 384.186 152.138 384.186 129.7V130.795C384.186 123.681 382.544 119.302 379.26 119.302C369.41 119.302 360.106 128.606 350.256 138.457C343.689 145.024 353.539 148.307 339.311 155.969C334.385 158.705 328.365 153.78 322.893 153.78C311.4 153.78 306.475 140.098 306.475 128.606C306.475 122.586 310.853 120.944 313.589 115.472C319.609 103.979 319.062 99.6012 324.535 88.656C327.818 80.9943 333.838 76.069 333.291 70.5964C333.291 68.4074 331.649 67.3129 331.649 65.1238C331.649 53.6314 346.972 45.9698 346.972 34.4773C346.972 27.9102 339.858 25.1739 338.216 20.2486C336.574 15.3233 337.669 13.6815 337.669 13.6815C338.216 12.587 338.763 12.587 339.858 12.587C345.878 12.587 348.067 19.1541 353.539 22.4376C354.087 14.776 351.35 13.1342 351.35 7.66163C351.35 4.92533 350.803 0 354.086 0C357.917 0 357.37 4.92533 360.654 7.66163C365.032 10.9452 368.862 10.3979 373.241 13.6815C379.26 17.5123 382.544 24.0794 384.733 24.0794C390.753 25.1739 392.395 17.5123 389.111 13.6815C395.678 13.1342 402.793 18.6068 411.549 18.6068C425.23 18.6068 430.156 22.4376 432.892 24.6267C441.648 32.2883 443.29 38.3081 453.14 38.3081C458.066 38.3081 460.802 33.9301 461.897 32.2883C468.464 37.2136 469.011 49.8006 461.897 60.7458C464.633 69.5019 477.22 70.5964 483.24 74.9745C489.259 79.3526 488.165 81.5416 492.543 83.7306C495.827 85.9197 499.11 85.3724 501.299 83.7306C504.036 95.7703 494.185 106.168 481.598 107.81C482.145 123.133 498.016 132.437 505.13 136.268C500.752 145.571 493.09 148.307 486.523 149.949C488.712 159.252 498.563 172.934 493.638 184.974C489.259 182.785 482.145 184.974 482.145 191.541C482.145 199.202 491.996 203.033 481.598 208.506C477.22 211.242 476.125 217.809 484.334 224.376C495.279 221.64 505.677 221.64 518.264 221.64C525.926 221.64 535.776 219.451 542.891 219.451C555.478 219.451 563.14 224.376 572.443 234.774C595.975 259.401 617.318 286.216 641.397 304.276Z" fill="#231F20"/>
<path d="M14.7859 236.963C19.7112 236.963 29.0146 209.053 48.1687 209.053C53.6413 209.053 54.7359 211.242 54.7359 213.431C54.7359 217.262 48.1687 220.545 48.1687 225.471C48.1687 226.565 48.7159 227.66 50.3577 227.66C54.7358 227.66 58.5667 217.262 77.1735 217.262C82.0988 217.262 86.4769 217.809 90.855 218.904C93.044 219.451 97.422 221.64 95.233 215.62C90.8549 202.486 76.0789 190.446 55.8303 190.446C35.5817 190.446 14.2386 208.506 12.0496 230.396C12.5968 234.227 12.5968 236.963 14.7859 236.963ZM365.032 62.9348C359.559 60.7458 358.465 58.0095 360.654 50.8951C361.748 43.7808 362.295 40.4972 359.012 39.95C356.276 38.8554 352.445 41.0445 348.614 44.8753C345.33 49.2534 339.858 55.2732 338.216 59.6513C336.574 65.6711 343.689 64.5766 338.763 74.4273C330.007 90.2978 327.818 94.1286 323.44 105.074C319.609 117.113 316.873 118.755 314.684 122.586C311.948 125.87 317.967 126.417 324.534 124.228C331.649 121.492 332.196 130.248 329.46 136.268C327.271 140.646 328.913 142.287 334.932 137.362C340.405 132.984 332.196 129.7 333.838 116.019C336.027 103.979 338.216 96.8649 345.878 84.8252C352.445 74.4273 357.917 66.7656 368.862 70.5965C373.241 72.7855 371.051 65.6711 365.032 62.9348ZM599.806 421.389C601.995 421.389 602.542 418.653 602.542 415.917C602.542 409.897 599.259 401.141 594.333 397.31C593.239 406.066 588.861 412.086 588.861 415.917C588.861 418.653 597.07 421.389 599.806 421.389ZM652.343 336.564C655.626 336.564 660.551 335.47 660.551 332.734C660.551 327.808 652.89 319.052 646.323 316.863C650.701 325.619 646.323 336.564 652.343 336.564ZM420.305 221.093C467.916 242.983 465.18 282.933 469.011 273.082C470.653 268.704 477.22 249.003 460.255 229.849C447.121 214.526 442.195 218.356 447.12 205.769C467.916 155.422 481.051 79.3526 418.663 53.0842C411.549 50.3479 405.529 50.3479 405.529 51.4424C405.529 52.5369 412.096 54.726 420.305 60.1985C461.896 87.5615 448.762 162.536 411.002 198.655C398.962 211.242 404.982 213.978 420.305 221.093ZM257.222 571.338C260.505 571.338 258.864 566.413 257.769 564.224C255.033 559.299 249.56 556.015 244.635 553.826C245.729 558.751 246.276 571.338 251.202 571.338H257.222ZM113.292 571.338C116.576 571.338 114.387 566.413 112.745 564.224C110.009 559.299 103.989 556.015 99.0639 553.826C100.158 558.751 101.253 571.338 106.178 571.338H113.292ZM287.868 285.122C314.137 282.386 318.515 276.366 322.893 256.665C325.082 247.361 331.649 237.51 337.669 231.491C341.499 227.113 345.33 223.829 349.161 217.809C350.256 215.073 351.35 213.431 349.161 213.978C346.425 216.167 337.121 222.187 333.291 224.923C314.684 238.058 286.226 244.078 275.281 244.078C251.202 244.078 230.406 236.963 208.516 236.963C142.845 236.963 118.218 288.406 121.501 318.505C122.049 323.43 122.596 323.43 124.238 323.43C128.616 323.43 132.994 305.918 149.412 290.047C173.491 267.062 199.759 253.928 236.973 253.928C263.789 253.928 275.281 262.684 275.281 265.968C275.281 272.535 263.789 273.082 264.883 279.649C264.336 282.386 270.356 287.311 287.868 285.122Z" fill="#6D6E70"/>
</svg>
