<svg width="24" height="16" viewBox="0 0 24 16" fill="none" xmlns="http://www.w3.org/2000/svg">
<g id="paypal-color">
<rect id="card_bg" width="24" height="16" rx="2" fill="white"/>
<path id="card_bg-2" fill-rule="evenodd" clip-rule="evenodd" d="M2 0H22C23.1046 0 24 0.89543 24 2V14C24 15.1046 23.1046 16 22 16H2C0.89543 16 0 15.1046 0 14V2C0 0.89543 0.89543 0 2 0ZM23 2C23 1.44772 22.5523 1 22 1H2C1.44772 1 1 1.44772 1 2V14C1 14.5523 1.44772 15 2 15H22C22.5523 15 23 14.5523 23 14V2Z" fill="#CCCCCB"/>
<g id="paypal">
<path id="Path" d="M10.17 12.66L10.34 11.56H8.10999L9.39999 3.43C9.39054 3.40762 9.39054 3.38238 9.39999 3.36H9.46999H12.58C13.3519 3.2584 14.1306 3.49125 14.72 4C14.8879 4.17558 15.0054 4.39323 15.06 4.63C15.1204 4.92023 15.1204 5.21977 15.06 5.51V5.76L15.24 5.86C15.5917 6.03569 15.8294 6.37891 15.87 6.77C15.9282 7.07727 15.9282 7.39273 15.87 7.7C15.8062 8.0728 15.6776 8.43155 15.49 8.76C15.3363 9.018 15.1322 9.24245 14.89 9.42C14.6405 9.59058 14.3629 9.71584 14.07 9.79C13.7418 9.86401 13.4064 9.90091 13.07 9.9H12.83C12.6571 9.90324 12.4908 9.96693 12.36 10.08C12.2282 10.1933 12.1398 10.3488 12.11 10.52V10.62L11.81 12.56V12.63H10.17V12.66Z" fill="#253D80"/>
<path id="Path_2" d="M15.4 5.54V5.72C15.1761 7.49356 13.5657 8.756 11.79 8.55H10.88C10.6608 8.54851 10.4755 8.71223 10.45 8.93L9.98001 11.93L9.85001 12.77C9.83807 12.8376 9.85692 12.9069 9.90141 12.9592C9.94591 13.0114 10.0114 13.041 10.08 13.04H11.69C11.884 13.0423 12.0502 12.9017 12.08 12.71V12.63L12.39 10.7V10.59C12.4193 10.4021 12.5798 10.2626 12.77 10.26H13C14.5525 10.4426 15.9623 9.34061 16.16 7.79C16.3526 7.14959 16.2301 6.45582 15.83 5.92C15.7097 5.76947 15.5642 5.64091 15.4 5.54V5.54Z" fill="#189BD7"/>
<path id="Path_3" d="M15 5.37H14.81H14.6C14.3354 5.32826 14.0678 5.30819 13.8 5.31H11.33C11.2737 5.30085 11.2163 5.30085 11.16 5.31C11.046 5.36556 10.9672 5.47435 10.95 5.6L10.43 8.88V8.98C10.4555 8.76223 10.6407 8.59851 10.86 8.6H11.77C13.5457 8.806 15.1561 7.54356 15.38 5.77V5.59L15.04 5.45L15 5.37Z" fill="#242E65"/>
<path id="Path_4" d="M11 5.55C11.0172 5.42435 11.096 5.31556 11.21 5.26C11.2663 5.25085 11.3237 5.25085 11.38 5.26H13.82C14.0879 5.25819 14.3554 5.27826 14.62 5.32H14.83H15.02H15.11L15.45 5.46C15.5738 4.85104 15.4075 4.21914 15 3.75C14.3437 3.17604 13.4766 2.90393 12.61 3H9.50002C9.27864 2.99793 9.0902 3.16068 9.06002 3.38L7.77002 11.58C7.75853 11.6565 7.78043 11.7343 7.83016 11.7936C7.87989 11.8529 7.95267 11.888 8.03002 11.89H10L10.48 8.83L11 5.55Z" fill="#253D80"/>
</g>
</g>
</svg>
